<svg width="24" height="24" viewBox="0 0 24 24" fill="none" xmlns="http://www.w3.org/2000/svg">
<path d="M21.9994 4.5C21.9994 4.76522 21.8941 5.01957 21.7065 5.20711C21.519 5.39464 21.2646 5.5 20.9994 5.5H11.9994C11.7342 5.5 11.4799 5.39464 11.2923 5.20711C11.1048 5.01957 10.9994 4.76522 10.9994 4.5C10.9994 4.23478 11.1048 3.98043 11.2923 3.79289C11.4799 3.60536 11.7342 3.5 11.9994 3.5H20.9994C21.2646 3.5 21.519 3.60536 21.7065 3.79289C21.8941 3.98043 21.9994 4.23478 21.9994 4.5ZM20.9994 8.5H13.9994C13.7342 8.5 13.4799 8.60536 13.2923 8.79289C13.1048 8.98043 12.9994 9.23478 12.9994 9.5C12.9994 9.76522 13.1048 10.0196 13.2923 10.2071C13.4799 10.3946 13.7342 10.5 13.9994 10.5H20.9994C21.2646 10.5 21.519 10.3946 21.7065 10.2071C21.8941 10.0196 21.9994 9.76522 21.9994 9.5C21.9994 9.23478 21.8941 8.98043 21.7065 8.79289C21.519 8.60536 21.2646 8.5 20.9994 8.5ZM20.9994 13.5H15.9994C15.7342 13.5 15.4799 13.6054 15.2923 13.7929C15.1048 13.9804 14.9994 14.2348 14.9994 14.5C14.9994 14.7652 15.1048 15.0196 15.2923 15.2071C15.4799 15.3946 15.7342 15.5 15.9994 15.5H20.9994C21.2646 15.5 21.519 15.3946 21.7065 15.2071C21.8941 15.0196 21.9994 14.7652 21.9994 14.5C21.9994 14.2348 21.8941 13.9804 21.7065 13.7929C21.519 13.6054 21.2646 13.5 20.9994 13.5ZM20.9994 18.5H17.9994C17.7342 18.5 17.4799 18.6054 17.2923 18.7929C17.1048 18.9804 16.9994 19.2348 16.9994 19.5C16.9994 19.7652 17.1048 20.0196 17.2923 20.2071C17.4799 20.3946 17.7342 20.5 17.9994 20.5H20.9994C21.2646 20.5 21.519 20.3946 21.7065 20.2071C21.8941 20.0196 21.9994 19.7652 21.9994 19.5C21.9994 19.2348 21.8941 18.9804 21.7065 18.7929C21.519 18.6054 21.2646 18.5 20.9994 18.5ZM5.99943 2C5.73421 2 5.47986 2.10536 5.29232 2.29289C5.10479 2.48043 4.99943 2.73478 4.99943 3V18.586L3.70643 17.293C3.51783 17.1108 3.26523 17.01 3.00303 17.0123C2.74083 17.0146 2.49002 17.1198 2.30461 17.3052C2.1192 17.4906 2.01403 17.7414 2.01176 18.0036C2.00948 18.2658 2.11027 18.5184 2.29243 18.707L5.29243 21.707C5.38532 21.8001 5.49567 21.874 5.61716 21.9244C5.73865 21.9748 5.8689 22.0008 6.00043 22.0008C6.13196 22.0008 6.26221 21.9748 6.3837 21.9244C6.50519 21.874 6.61554 21.8001 6.70843 21.707L9.70843 18.707C9.89059 18.5184 9.99138 18.2658 9.9891 18.0036C9.98682 17.7414 9.88166 17.4906 9.69625 17.3052C9.51084 17.1198 9.26003 17.0146 8.99783 17.0123C8.73563 17.01 8.48303 17.1108 8.29443 17.293L6.99943 18.586V3C6.99943 2.73478 6.89407 2.48043 6.70654 2.29289C6.519 2.10536 6.26465 2 5.99943 2Z" fill="#00C7BE"/>
</svg>
