<svg width="27" height="27" viewBox="0 0 27 27" fill="none" xmlns="http://www.w3.org/2000/svg">
<path d="M2.72205 8.01058L11.7942 14.361C12.5288 14.8753 12.8961 15.1324 13.2957 15.232C13.6486 15.32 14.0177 15.32 14.3706 15.232C14.7702 15.1324 15.1376 14.8753 15.8721 14.361L24.9442 8.01058M8.05538 22.455H19.6109C21.4778 22.455 22.4112 22.455 23.1242 22.0917C23.7514 21.7721 24.2614 21.2622 24.5809 20.635C24.9442 19.922 24.9442 18.9885 24.9442 17.1217V10.0106C24.9442 8.14374 24.9442 7.21033 24.5809 6.49729C24.2614 5.87007 23.7514 5.36014 23.1242 5.04057C22.4112 4.67725 21.4778 4.67725 19.6109 4.67725H8.05538C6.18854 4.67725 5.25513 4.67725 4.54209 5.04057C3.91487 5.36014 3.40494 5.87007 3.08537 6.49729C2.72205 7.21033 2.72205 8.14374 2.72205 10.0106V17.1217C2.72205 18.9885 2.72205 19.922 3.08537 20.635C3.40494 21.2622 3.91487 21.7721 4.54209 22.0917C5.25513 22.455 6.18854 22.455 8.05538 22.455Z" stroke="#B3B3B3" stroke-width="2.22223" stroke-linecap="square" stroke-linejoin="round"/>
</svg>
